<?xml version="1.0" encoding="utf-8"?>
<!-- Generator: Adobe Illustrator 16.0.0, SVG Export Plug-In . SVG Version: 6.00 Build 0)  -->
<!DOCTYPE svg PUBLIC "-//W3C//DTD SVG 1.1//EN" "http://www.w3.org/Graphics/SVG/1.1/DTD/svg11.dtd">
<svg version="1.1" id="Layer_1" xmlns="http://www.w3.org/2000/svg" xmlns:xlink="http://www.w3.org/1999/xlink" x="0px" y="0px"
	 width="364.25px" height="352.334px" viewBox="0 0 364.25 352.334" enable-background="new 0 0 364.25 352.334"
	 xml:space="preserve">
<g enable-background="new    ">
	<path fill="#3CA2DB" d="M362.625,1.75V247.5c0,30.668-9.25,55.668-27.75,75c-18.5,19.336-42.418,29-71.75,29
		c-35.336,0-62.336-16.082-81-48.25c-11.5,17.336-23.836,29.711-37,37.125c-13.168,7.414-29.418,11.125-48.75,11.125
		c-30.668,0-54.168-9.664-70.5-29c-16.336-19.332-24.5-47.164-24.5-83.5V1.75h101.5v222c0,11,0.875,18.25,2.625,21.75
		s5.289,5.25,10.625,5.25c10,0,15-8.414,15-25.25V1.75h101.5v222c0,10.668,0.914,17.836,2.75,21.5c1.832,3.668,5.414,5.5,10.75,5.5
		c10,0,15-9,15-27v-222H362.625z"/>
</g>
</svg>
